<svg width="100%" height="100%" viewBox="0 0 209 209" version="1.1" xmlns="http://www.w3.org/2000/svg" style="fill-rule:evenodd;clip-rule:evenodd;stroke-linejoin:round;stroke-miterlimit:2;">
  <circle cx="104.623" cy="104.623" r="77.092" style="fill:#3c3b3a;"/>
  <path d="M39.381,27.531l-11.85,11.85l30.811,30.811l11.85,-11.85l-30.811,-30.811Z" style="fill:#3c3b3a;"/>
  <path d="M149.991,138.141l-11.85,11.85l30.811,30.812l11.851,-11.851l-30.812,-30.811Z" style="fill:#3c3b3a;"/>
  <path d="M180.803,39.381l-11.851,-11.85l-30.811,30.811l11.85,11.85l30.812,-30.811Z" style="fill:#3c3b3a;"/>
  <path d="M70.192,149.991l-11.85,-11.85l-30.811,30.811l11.85,11.851l30.811,-30.812Z" style="fill:#3c3b3a;"/>
  <rect x="95.787" y="4.167" width="16.759" height="43.574" style="fill:#3c3b3a;"/>
  <rect x="95.787" y="160.593" width="16.759" height="43.574" style="fill:#3c3b3a;"/>
  <path d="M204.167,112.546l-0,-16.759l-43.574,0l-0,16.759l43.574,0Z" style="fill:#3c3b3a;"/>
  <path d="M47.74,112.546l0,-16.759l-43.573,0l-0,16.759l43.573,0Z" style="fill:#3c3b3a;"/>
</svg>